<svg version="1.1" id="Layer_1" xmlns="http://www.w3.org/2000/svg" xmlns:xlink="http://www.w3.org/1999/xlink" x="0px" y="0px"
	 width="100%" viewBox="0 0 272 256" enable-background="new 0 0 272 256" xml:space="preserve">
<path fill="#000000" opacity="1.000000" stroke="none" 
	d="
M108.877106,225.875305 
	C103.256714,231.820511 97.887764,237.516769 92.505135,243.200073 
	C91.589462,244.166855 90.664009,245.134918 89.656555,246.001846 
	C88.037384,247.395157 86.137924,248.203964 84.174400,246.940033 
	C82.128784,245.623291 82.300591,243.386612 83.020813,241.514313 
	C85.112305,236.077209 87.405937,230.716232 89.689598,225.354935 
	C99.151993,203.140244 108.666260,180.947601 118.102501,158.721832 
	C120.940376,152.037613 119.203690,149.426834 111.992256,149.330688 
	C106.660675,149.259613 101.327362,149.283234 95.995064,149.310532 
	C91.288475,149.334625 87.369949,147.829025 85.439255,143.265335 
	C83.562675,138.829544 84.720871,134.827072 87.904480,131.296677 
	C102.293625,115.340126 116.696991,99.396149 131.027084,83.386650 
	C149.356201,62.909458 167.606110,42.361385 185.928253,21.877954 
	C188.379257,19.137836 190.609970,14.518744 195.087891,17.012829 
	C199.800644,19.637714 196.632004,23.909559 195.328629,27.225241 
	C185.094696,53.259399 174.697006,79.229149 164.368607,105.226219 
	C161.354828,112.812019 162.081940,113.831749 170.332016,113.861656 
	C177.663757,113.888237 185.005539,113.694267 192.324417,114.016922 
	C199.943832,114.352829 203.929062,118.520988 203.293365,124.679321 
	C203.015915,127.367203 201.463974,129.260971 199.718323,131.076828 
	C174.432922,157.379135 149.134918,183.669312 123.862396,209.983948 
	C118.900970,215.149963 114.034317,220.406967 108.877106,225.875305 
z"/>
<path fill="#000000" opacity="1.000000" stroke="none" 
	d="
M205.689850,53.905914 
	C203.632141,49.227547 206.812805,45.931023 208.151871,42.373367 
	C212.627213,30.483189 216.697937,29.541290 226.417374,37.937069 
	C250.982941,59.157207 264.649231,86.083939 268.390900,118.236610 
	C274.592926,171.531570 244.427490,223.793533 193.966721,244.431656 
	C172.643539,253.152695 150.400986,256.387421 127.423729,253.103714 
	C125.468460,252.824280 123.468925,252.316711 121.682655,251.495804 
	C116.811714,249.257339 115.473679,244.030823 118.900490,239.925446 
	C121.988335,236.226120 125.507484,232.885666 128.853546,229.403412 
	C130.841125,227.334961 133.402191,227.551605 135.888138,227.845444 
	C188.226974,234.031754 233.971085,196.751129 241.790955,148.707748 
	C248.031677,110.366112 235.752884,78.925896 205.689850,53.905914 
z"/>
<path fill="#000000" opacity="1.000000" stroke="none" 
	d="
M48.379364,107.363106 
	C41.054947,143.804459 48.909550,175.511917 75.605675,201.602966 
	C78.933853,204.855713 79.668533,207.469116 77.484154,211.534348 
	C75.604668,215.032150 74.558205,218.966888 72.934052,222.615234 
	C70.817551,227.369522 67.258537,228.427811 63.413082,225.117401 
	C40.623455,205.498611 26.097353,181.201340 21.539648,151.174500 
	C17.604244,125.247467 20.668537,100.328369 32.438847,76.864548 
	C51.662979,38.541706 83.077492,16.398775 125.044861,9.125417 
	C135.379822,7.334266 145.932846,7.251833 156.401718,8.854137 
	C160.538528,9.487293 164.212036,10.743107 165.702850,15.230585 
	C167.107254,19.457952 164.634430,22.174168 162.024475,24.870192 
	C160.866913,26.065924 159.664490,27.250822 158.704208,28.598650 
	C156.049377,32.324951 152.653656,33.596382 147.990601,33.493401 
	C127.578415,33.042622 108.388420,37.561424 90.963150,48.597675 
	C70.543175,61.530613 57.122837,79.776337 49.800270,102.671173 
	C49.343933,104.097954 48.902370,105.529457 48.379364,107.363106 
z"/>
</svg>